<svg xmlns="http://www.w3.org/2000/svg"  viewBox="0 0 64 64" width="64px" height="64px"><radialGradient id="cvx0Om7A45XkwDjINEOqxa" cx="246.667" cy="937.333" r="207.633" gradientTransform="matrix(-1 0 0 1 64 -650)" gradientUnits="userSpaceOnUse"><stop offset="0" stop-color="#f4e9c3"/><stop offset=".219" stop-color="#f8eecd"/><stop offset=".644" stop-color="#fdf4dc"/><stop offset="1" stop-color="#fff6e1"/></radialGradient><path fill="url(#cvx0Om7A45XkwDjINEOqxa)" d="M6,64L6,64c-2.209,0-4-1.791-4-4l0,0c0-2.209,1.791-4,4-4l0,0c2.209,0,4,1.791,4,4l0,0	C10,62.209,8.209,64,6,64z M2,20.5L2,20.5C2,18.015,4.015,16,6.5,16H15c2.209,0,4-1.791,4-4l0,0c0-2.209-1.791-4-4-4h-2	c-2.209,0-4-1.791-4-4l0,0c0-2.209,1.791-4,4-4l29,0c2.209,0,4,1.791,4,4l0,0c0,2.209-1.791,4-4,4h-1c-1.657,0-3,1.343-3,3l0,0	c0,1.657,1.343,3,3,3h17.5c1.933,0,3.5,1.567,3.5,3.5l0,0c0,1.933-1.567,3.5-3.5,3.5H56c-1.657,0-3,1.343-3,3l0,0	c0,1.657,1.343,3,3,3h3c2.761,0,5,2.239,5,5l0,0c0,2.761-2.239,5-5,5h-8.5c-1.933,0-3.5,1.567-3.5,3.5l0,0	c0,1.933,1.567,3.5,3.5,3.5H58c2.209,0,4,1.791,4,4l0,0c0,2.209-1.791,4-4,4H46.5c-1.933,0-3.5,1.567-3.5,3.5l0,0	c0,1.933,1.567,3.5,3.5,3.5l0,0c1.381,0,2.5,1.119,2.5,2.5l0,0c0,1.381-1.119,2.5-2.5,2.5h-29c-1.933,0-3.5-1.567-3.5-3.5l0,0	c0-1.933,1.567-3.5,3.5-3.5H18c1.105,0,2-0.895,2-2l0,0c0-1.105-0.895-2-2-2h-8c-2.209,0-4-1.791-4-4l0,0c0-2.209,1.791-4,4-4h6	c1.105,0,2-0.895,2-2l0,0c0-1.105-0.895-2-2-2l-1-8c2.209,0,4-1.791,4-4l0,0c0-2.209-1.791-4-4-4H6.5C4.015,25,2,22.985,2,20.5z M4,41L4,41c2.209,0,4-1.791,4-4l0,0c0-2.209-1.791-4-4-4l0,0c-2.209,0-4,1.791-4,4l0,0C0,39.209,1.791,41,4,41z"/><linearGradient id="cvx0Om7A45XkwDjINEOqxb" x1="31.415" x2="31.415" y1="13.404" y2="49.995" gradientUnits="userSpaceOnUse"><stop offset="0" stop-color="#42d778"/><stop offset=".428" stop-color="#3dca76"/><stop offset="1" stop-color="#34b171"/></linearGradient><path fill="url(#cvx0Om7A45XkwDjINEOqxb)" d="M49.384,10.941	c-6.463-1.259-12.708-2.25-17.935-2.277V8.659c-0.035,0-0.073,0.002-0.109,0.003c-0.036,0-0.074-0.003-0.11-0.003v0.005	c-5.179,0.027-11.366,1.018-17.768,2.277c-0.827,16.257-1.751,35.547,17.878,44.995C49.887,45.536,50.46,31.892,49.384,10.941z"/><linearGradient id="cvx0Om7A45XkwDjINEOqxc" x1="31.404" x2="31.404" y1="9.595" y2="53.863" gradientUnits="userSpaceOnUse"><stop offset=".192" stop-color="#5e6d7b"/><stop offset=".505" stop-color="#5c6b79"/><stop offset="1" stop-color="#515c69"/></linearGradient><path fill="url(#cvx0Om7A45XkwDjINEOqxc)" d="M31.333,59.468	c-0.287,0-0.575-0.062-0.842-0.188C7.739,48.578,8.873,26.771,9.786,9.25c0.048-0.919,0.713-1.687,1.612-1.86	c5.85-1.125,13.357-2.417,19.655-2.469c0.052-0.004,0.106-0.006,0.159-0.006c0.019,0,0.099,0.001,0.119,0.002l0.119-0.002	c0.053,0,0.107,0.002,0.16,0.006c6.357,0.051,13.931,1.344,19.834,2.468c0.9,0.171,1.567,0.939,1.615,1.86	c1.191,22.658,0.388,38.377-20.776,49.976C31.988,59.387,31.661,59.468,31.333,59.468z M13.675,11.029	c-0.842,16.515-1.2,34.779,17.593,44.187C49.484,44.833,50.188,31.501,49.17,11.031c-5.52-1.023-12.188-2.083-17.729-2.111	c-0.034,0-0.068-0.001-0.101-0.003h-0.008c-0.003,0-0.007,0-0.011,0c-0.033,0.002-0.066,0.003-0.1,0.003	C25.742,8.948,19.142,10.007,13.675,11.029z"/><path fill="#fafafa" d="M41.89,30.873c0,0,0.417-3.684-1.668-6.325c-2.085-2.641-3.571-4.822-1.929-6.985	c0.652-0.73,0.027-1.292-0.886-0.86c-0.764,0.361-2.069,1.644-1.911,3.258c0.278,2.85,2.919,7.506,3.058,8.758	c0.139,1.251-1.599-2.016-7.298,0.486c-5.699,2.502-3.076,9.334,1.321,9.522c4.176,0.179,6.047-2.085,6.047-2.085	s-1.321,5.977-7.298,5.977c-5.977,0-5.56-8.34-3.753-10.982c1.807-2.641,6.742-8.827,6.255-12.858	c-0.487-4.031-2.919-6.186-5.977-5.352c-2.711-1.599-5.56,1.738-5.282,2.641c-1.738,1.043-2.363,2.919-1.946,3.684	c0.417,0.765,2.155,0.278,2.155,0.278s-1.251,1.112-0.139,2.155c1.112,1.043,3.962-1.39,5.282-3.058	c0.73-0.156,1.599-0.904,1.599-0.904s-0.07,2.641-1.182,4.17c-1.112,1.529-8.48,10.148-7.367,16.264	c1.112,6.116,4.935,10.009,11.885,9.592c6.95-0.417,10.656-8.982,10.565-11.92C43.28,31.846,41.89,30.873,41.89,30.873z M33.375,34.174c-2.259-0.226-0.73-2.033,0.295-2.294c1.025-0.261,2.102-0.66,3.857,0.556C37.528,32.437,35.634,34.4,33.375,34.174z"/><path fill="#b0bec5" d="M37.954,30.882c0,0-2.033-2.606-5.604-0.938c-3.571,1.668-1.381,4.796-0.599,4.848	s1.147-0.469,1.147-0.469s-2.32-2.32-0.287-3.023c2.033-0.704,4.301-0.521,4.796-0.078C37.902,31.663,37.954,30.882,37.954,30.882z"/><path fill="#b0bec5" d="M23.254,15.895c0,0,1.486,0.339,2.398-0.73c0.912-1.069,2.189-0.495,2.189-0.495	s3.727-0.599,2.919,3.44c-0.417-0.182-1.303-0.652-1.303-0.652l-1.147,1.225l-0.652-0.104c0,0-1.277,2.606-3.18,3.076	s-2.111-0.104-2.111-0.104s-0.652-1.095,0.834-1.851c-0.886-0.209-1.486-0.73-1.173-1.642c0.313-0.912,0.99-0.678,1.59-0.417	s2.085,0,3.076-0.756C23.749,17.328,23.384,16.39,23.254,15.895z"/><path fill="#b0bec5" d="M31.646,18.579c0,0,0.209,2.346-1.121,3.962s-7.037,9.696-7.35,12.042	c-0.313,2.346-0.078,5.317,1.017,6.36s2.763,0.469,2.085-0.417c-0.678-0.886-0.678-8.236,0.573-10.009	c1.251-1.772,5.083-6.907,5.5-8.627c0.417-1.72,0.495-2.502,0.391-3.206C32.637,17.98,31.699,17.719,31.646,18.579z"/><path fill="#b0bec5" d="M30.656,35.646c-0.81-0.197-0.933,2.088,2.259,2.152c1.678,0.034,3.527-0.091,5.872-2.489	c2.346-2.398,2.31-4.527,2.011-6.16c-0.792-4.32-2.968-5.617-2.968-5.617s2.426,4.085,1.662,7.063	c-0.958,3.737-3.493,5.763-6.255,5.572C31.646,36.057,30.656,35.646,30.656,35.646z"/><path fill="#b0bec5" d="M40.039,35.86c0,0,0.287,3.91-3.154,6.568c-3.44,2.659-2.45,2.606-0.521,2.424	c1.929-0.182,5.395-4.327,5.395-4.327s1.329-1.564,1.303-4.144c-0.026-2.58-0.782-4.431-0.99-4.066	C41.864,32.68,40.039,35.86,40.039,35.86z"/><path fill="#b0bec5" d="M36.051,45.842c0,0-4.874,1.329-8.784-1.772s-2.737,1.016-2.737,1.016s7.875,3.175,9.022,2.445	C34.7,46.802,36.051,45.842,36.051,45.842z"/><linearGradient id="cvx0Om7A45XkwDjINEOqxd" x1="31.213" x2="31.213" y1="20.616" y2="45.031" gradientUnits="userSpaceOnUse"><stop offset=".096" stop-color="#5e6d7b"/><stop offset=".505" stop-color="#5c6b79"/><stop offset="1" stop-color="#515c69"/></linearGradient><path fill="url(#cvx0Om7A45XkwDjINEOqxd)" d="M23.619,16.312c0,0,0.99,0.313,2.085-0.417	c1.095-0.73,1.277-0.782,1.72-0.521s0.209,1.095-0.599,1.434s-3.102,0.13-3.102,0.13l0.678-0.313L23.619,16.312z M26.72,18.371	c0,0-1.434,0.521-1.72,1.095c-1.486,0.104-2.502,0.626-2.502,0.626s-0.738,1.147-0.035,1.329c0.704,0.182,1.904-0.556,2.354-0.938	C25.33,20.048,26.72,18.371,26.72,18.371z M23.358,20.56c0,0-1.173,0.808-1.772,0.73c-0.599-0.078-1.147,0.052-1.147,1.147	s-1.355,1.121-1.434,2.294c0.469-0.678,1.512-0.886,1.512-0.886s-0.052,0.964,0.626,1.303c-0.104-0.912,0.078-1.486,0.391-1.903	c0.313-0.417-0.678-1.121,0.339-1.381c1.017-0.261,1.355-0.495,1.72-0.886C23.957,20.586,23.723,20.195,23.358,20.56z M29.17,20.395	c0,0,1.477-0.556,1.746-2.103c0.261-1.497-0.704-2.294-1.59-2.606c-0.886-0.313-1.095,0.365-0.652,0.756	c0.443,0.391,0.756,0.834,0.313,1.095c-0.443,0.261-1.381,0.104-1.381,0.104s-0.339,1.121-0.704,1.668s-1.772,1.877-2.737,2.268	c-0.964,0.391-1.946,0.017-1.946,0.017s0.252,0.999,1.347,0.921s3.623-1.642,4.457-3.206c0.808-0.287,1.147-0.599,1.147-0.599	S29.327,19.796,29.17,20.395z M35.973,30.021c-0.99-0.73-1.486,0.235-2.45,0.287c-0.964,0.052-1.903,0.99-2.059,2.215	c-0.156,1.225,0.756,2.294,2.033,1.642c-1.303-0.156-1.147-2.033,0.704-2.398c1.851-0.365,2.606,0.391,3.18,0.756	c0.417-0.287,0.834-1.095,0.834-1.095C37.928,30.908,36.963,30.751,35.973,30.021z M38.455,17.333	c-0.002-0.011-0.006-0.031-0.006-0.031s-1.72,0.704-1.72,2.163c0,1.46,1.277,3.18,1.955,3.936c0.678,0.756,3.154,4.144,2.919,6.803	c-0.235,2.659-1.147,4.891-2.685,6.142c-0.139,0.209-0.295,0.295-0.295,0.295s-0.026,0.113-0.082,0.299	c-0.127,0.327-0.249,0.605-0.249,0.605s2.346-1.034,2.971-2.441c0.626-1.408,1.355-1.329,1.277,0.339	c-0.078,1.668-0.678,3.91-0.964,4.379s-0.73,0.183-0.626-1.043c-0.99,2.971-2.346,4.926-5.135,6.125	c-2.789,1.199-5.578,0.808-6.985,0.417c-1.408-0.391,0.078,0.599,0.704,0.73c0.626,0.13,2.685,0.599,5.03,0.13	c0.73-0.287,0.704,0.13,0.052,0.417c-0.652,0.287-6.073,0.938-8.992-1.72c-1.728-1.574-1.855-0.699-1.673,0.276	c2.006,2.17,4.946,3.332,8.902,3.095c6.95-0.417,10.656-8.982,10.565-11.92c-0.139-4.483-1.529-5.456-1.529-5.456	s0.417-3.684-1.668-6.325c-2.085-2.641-3.571-4.822-1.929-6.985C38.364,17.483,38.413,17.407,38.455,17.333z M32.689,16.651	c0.235,0.678,0.313,3.493-0.313,4.77c-0.626,1.277-1.877,3.44-3.232,5.135c-1.355,1.694-4.561,6.177-4.275,9.461	c0.287,3.284,1.147,5.343,3.44,6.255c2.294,0.912,5.004,1.129,6.594-0.591c-0.063-0.005-0.186,0.179-0.251,0.17	c-0.906,0.461-1.996,0.768-3.328,0.768c-5.977,0-5.56-8.34-3.753-10.982c1.807-2.641,6.742-8.827,6.255-12.858	c-0.177-1.469-0.616-2.686-1.246-3.602l-0.022-0.012C32.559,15.165,32.454,15.973,32.689,16.651z"/><path fill="#b0bec5" d="M21.394,33.777c0,0,1.182-0.158,0.974,1.353s-0.365,4.613,0.86,6.386	c1.225,1.772-0.106,2.313-0.653,1.74s-1.886-4.274-1.755-5.968C20.949,35.593,21.394,33.777,21.394,33.777z"/><ellipse cx="26.056" cy="16.378" fill="#fc7251" rx=".586" ry=".429"/></svg>