<svg xmlns="http://www.w3.org/2000/svg"  viewBox="0 0 64 64" width="64px" height="64px"><radialGradient id="BAtC0rrywczVnn1U-xgVCa" cx="238.959" cy="287.333" r="205.057" gradientUnits="userSpaceOnUse"><stop offset="0" stop-color="#f4e9c3"/><stop offset=".219" stop-color="#f8eecd"/><stop offset=".644" stop-color="#fdf4dc"/><stop offset="1" stop-color="#fff6e1"/></radialGradient><path fill="url(#BAtC0rrywczVnn1U-xgVCa)" d="M6.5,39H15c2.209,0,4-1.791,4-4l0,0c0-2.209-1.791-4-4-4l1-8c1.105,0,2-0.895,2-2l0,0	c0-1.105-0.895-2-2-2H4c-2.209,0-4-1.791-4-4l0,0c0-2.209,1.791-4,4-4h14c1.105,0,2-0.895,2-2l0,0c0-1.105-0.895-2-2-2h-0.5	C15.567,7,14,5.433,14,3.5l0,0C14,1.567,15.567,0,17.5,0h29C47.881,0,49,1.119,49,2.5l0,0C49,3.881,47.881,5,46.5,5l0,0	C44.567,5,43,6.567,43,8.5l0,0c0,1.933,1.567,3.5,3.5,3.5H58c2.209,0,4,1.791,4,4l0,0c0,2.209-1.791,4-4,4h-7.5	c-1.933,0-3.5,1.567-3.5,3.5l0,0c0,1.933,1.567,3.5,3.5,3.5H55c2.761,0,5,2.239,5,5l0,0c0,2.761-2.239,5-5,5h-8	c-1.657,0-3,1.343-3,3l0,0c0,1.657,1.343,3,3,3h11.5c1.933,0,3.5,1.567,3.5,3.5l0,0c0,1.933-1.567,3.5-3.5,3.5H51	c-1.657,0-3,1.343-3,3l0,0c0,1.657,1.343,3,3,3h5c2.209,0,4,1.791,4,4l0,0c0,2.209-1.791,4-4,4H7c-2.209,0-4-1.791-4-4l0,0	c0-2.209,1.791-4,4-4h2c2.209,0,4-1.791,4-4l0,0c0-2.209-1.791-4-4-4H6.5C4.015,48,2,45.985,2,43.5l0,0C2,41.015,4.015,39,6.5,39z"/><path fill="#ffe98f" d="M49.384,10.941c-6.463-1.259-12.708-2.25-17.935-2.277V8.659c-0.035,0-0.073,0.002-0.109,0.003	c-0.036,0-0.074-0.003-0.11-0.003v0.005c-5.179,0.027-11.366,1.018-17.768,2.277c-0.827,16.257-1.751,35.547,17.878,44.995	C49.887,45.536,50.46,31.892,49.384,10.941z"/><linearGradient id="BAtC0rrywczVnn1U-xgVCb" x1="31.274" x2="31.274" y1="16.981" y2="53.287" gradientUnits="userSpaceOnUse"><stop offset="0" stop-color="#ff5840"/><stop offset=".007" stop-color="#ff5840"/><stop offset=".989" stop-color="#fa528c"/><stop offset="1" stop-color="#fa528c"/></linearGradient><path fill="url(#BAtC0rrywczVnn1U-xgVCb)" d="M13.462,10.941	c-0.291,5.717-0.59,11.808-0.006,17.715h17.649l0.175,27.249c0.021,0.01,0.04,0.021,0.06,0.031	c12.824-7.191,17.053-15.935,18.087-27.571H31.212v-19.7C26.037,8.694,19.857,9.683,13.462,10.941z"/><linearGradient id="BAtC0rrywczVnn1U-xgVCc" x1="31.404" x2="31.404" y1="57.089" y2="12.89" gradientUnits="userSpaceOnUse"><stop offset="0" stop-color="#feaa53"/><stop offset=".612" stop-color="#ffcd49"/><stop offset="1" stop-color="#ffde44"/></linearGradient><path fill="url(#BAtC0rrywczVnn1U-xgVCc)" d="M31.333,59.468	c-0.287,0-0.575-0.062-0.842-0.188C7.739,48.595,8.873,26.822,9.786,9.328c0.048-0.918,0.713-1.685,1.612-1.857	c5.85-1.123,13.357-2.414,19.655-2.465C31.105,5.002,31.159,5,31.212,5c0.019,0,0.099,0.001,0.119,0.002L31.451,5	c0.053,0,0.107,0.002,0.16,0.006c6.357,0.051,13.931,1.342,19.834,2.464c0.9,0.171,1.567,0.938,1.615,1.857	c1.191,22.623,0.388,38.317-20.776,49.898C31.988,59.387,31.661,59.468,31.333,59.468z M13.675,11.104	c-0.842,16.489-1.2,34.725,17.593,44.118C49.484,44.856,50.188,31.544,49.17,11.107c-5.52-1.021-12.188-2.08-17.729-2.108	c-0.034,0-0.068-0.001-0.101-0.003h-0.008c-0.003,0-0.007,0-0.011,0c-0.033,0.002-0.066,0.003-0.1,0.003	C25.742,9.026,19.142,10.084,13.675,11.104z"/><linearGradient id="BAtC0rrywczVnn1U-xgVCd" x1="30.504" x2="30.504" y1="42.775" y2="11.427" gradientUnits="userSpaceOnUse"><stop offset="0" stop-color="#fca853"/><stop offset=".612" stop-color="#fdcb49"/><stop offset="1" stop-color="#fddc44"/></linearGradient><path fill="url(#BAtC0rrywczVnn1U-xgVCd)" d="M25.915,20.427	c0,0-1.948-1.298-2.967-1.517c-1.293-1.007-0.674-3.398-0.674-3.398s1.566-2.627-1.129-2.955c-0.947-0.218-1.092,1.098-1.092,1.098	s-0.837-1.238-2.039-0.728c-1.202,0.51-0.146,2.294-0.146,2.294s-1.602-0.182-1.638,1.384s1.384,1.638,1.384,1.638	s0.692-1.202,1.638-0.036c0.947,1.165-0.801,1.274-0.801,1.274s0.583,0.947,1.602,0.91c1.019-0.036,1.384,0.837,0.401,0.947	c0.874,1.675,3.095,1.742,3.095,1.742l-1.165,0.406l2.257,1.602l-0.583,0.728c0,0-1.566,0.182-2.694-0.364	c-1.129-0.546-2.039,0.291-2.039,0.291s-0.218-1.82-1.092-2.112c-0.437-1.42-3.058-0.692-2.658,1.019	c-1.019,0.218-1.147,2.179,0.601,2.543c-0.91,1.311-0.637,2.263,0.164,2.737c0.801,0.473,1.602,0.036,1.893-0.837	c0.291-0.874,1.82,0.146,0.801,0.983c1.384,0.218,1.675-0.146,2.221-0.51c0.546-0.364,1.893-0.109,0.546,0.837	c1.638,0.51,2.439,0.401,3.022-0.218s1.493-0.073,0.255,0.692c2.003,0.255,3.131,0.146,3.859-0.655	c-0.182,0.801,0.983,1.529,0.983,1.529s-3.859-0.437-4.223,1.638c-0.364,2.075,0.801,2.367,0.91,2.876s-0.692,0.583-1.274,0.401	c-0.583-0.182-1.893-0.51-2.658-0.328c0.837-1.711,0.364-3.131-1.602-2.33c-0.801,0.291-0.837,1.384-0.837,1.384	s-1.566,0.291-1.347,2.112s1.602,1.711,1.602,1.711s-0.437,1.311,0.874,1.347c1.311,0.036,1.129-1.602,1.82-1.456	s0.364,1.857,0.364,1.857s2.476,0.328,3.932,0.182c-0.036,0.583,0.109,0.91,0.109,0.91s0.837-1.784,3.568-1.857	c1.129,1.42,0.947,1.566,2.148,1.857c1.202,0.291,1.784,1.202,0.801,1.384c-0.983,0.182-1.638,2.075-1.638,2.075	s-1.456-1.82-2.986-1.493c-1.529,0.328-1.056,2.549-0.036,2.767c-0.109,1.165,1.566,1.493,2.439,1.42	c-0.073,1.019,1.238,1.05,1.711,0.249c0.473-0.801,0.437-0.904,0.437-0.904s1.074,1.214,2.694-1.784	c1.056-0.218,0.437-2.039,0.437-2.039s2.257-0.473,1.129-2.33s-1.384-4.66-1.384-4.66s0.583,0.364,0.655-0.874	c1.456,0.364,2.003,0.692,2.949,1.966c0.947,1.274-0.182,1.893,0.91,3.168c-0.182,0.801-0.437,1.238-0.437,1.238	s2.549-0.983,1.966-3.932c1.638-1.019,3.641-3.204,1.202-6.444c-2.439-3.24-5.024-7.355-4.078-10.85	c0.947-3.495,3.277-2.804,3.787-2.403c0.51,0.401,1.056,3.131-0.182,4.078c-1.238,0.947-1.165,2.257-1.092,3.095	s-0.073,1.602-0.073,1.602s0.765-0.328,1.019-1.238c0.073,1.384,0.692,2.257,0.692,2.257l1.019-1.675l0.692,0.218	c0,0,0.036-2.731-0.765-3.969c0.91-2.658,2.075-5.389-0.947-6.918c-3.022-1.529-5.825,3.969-6.044,4.77	c-0.218,0.801-1.092,5.17,1.748,8.811c2.84,3.641,4.187,5.134,3.35,5.935c-0.837,0.801-3.058-0.255-4.333-1.274	c-0.182-1.274-0.255-2.439-1.42-3.095c0.182-1.493-1.165-3.495-2.185-4.478c1.129-1.347,0.91-2.512,0.801-3.641	c0.473,0.109,1.019,0.401,1.019,0.401l-0.218-3.459c0,0,1.529-0.364,0.874-2.003c0,0-0.291-3.35-0.619-4.114	c0.837-0.036-2.148-1.857-2.148-1.857l0.364-1.202c0,0-2.148-0.036-2.84-0.619c-0.073,1.019-2.003,1.566-2.075,0.51	c-0.51-0.036-1.165,0-1.165,0s0.51,0.728-0.364,1.238c-0.874,0.51-1.857,1.129-2.003,1.82c-0.983,0.109-1.092,0.837-1.092,0.837	s-0.868-0.033-0.376,1.197c0.553,1.383,1.723,1.498,2.452,0.551c0.765-0.182,1.602-0.401,1.893,0.874	c0.291,1.274-2.621,0.983-2.621,0.983s0.146,0.765,1.238,0.765C29.556,19.007,25.915,20.427,25.915,20.427z"/><linearGradient id="BAtC0rrywczVnn1U-xgVCe" x1="15.454" x2="16.868" y1="24.086" y2="24.086" gradientUnits="userSpaceOnUse"><stop offset=".096" stop-color="#5e6d7b"/><stop offset=".505" stop-color="#5c6b79"/><stop offset="1" stop-color="#515c69"/></linearGradient><path fill="url(#BAtC0rrywczVnn1U-xgVCe)" d="M16.868,25.142 c-1.202-0.364-0.364-2.148-0.364-2.148C14.556,23.862,15.703,25.434,16.868,25.142z"/><linearGradient id="BAtC0rrywczVnn1U-xgVCf" x1="15.391" x2="30.175" y1="28.183" y2="28.183" gradientUnits="userSpaceOnUse"><stop offset=".096" stop-color="#5e6d7b"/><stop offset=".505" stop-color="#5c6b79"/><stop offset="1" stop-color="#515c69"/></linearGradient><path fill="url(#BAtC0rrywczVnn1U-xgVCf)" d="M19.507,28.984 c0.874,0.401-0.473,1.092-0.473,1.092s1.529,0.218,2.003-0.146c0.473-0.364,1.638-0.583,1.274,0.109 c-0.364,0.692-0.801,0.473-0.801,0.473s1.311,0.801,2.439,0.109c1.129-0.692,2.112-0.728,1.311,0.401 c1.675,0.291,3.204,0.036,3.896-1.202s1.019-0.583,1.019-0.583l-0.218-4.005c0,0-2.549,2.512-1.93,4.151 c-1.092,0.546-1.456-1.129-1.456-1.129s-1.638,1.019-3.532,0.473c-1.893-0.546-2.512,0.036-2.512,0.036l0.401-1.056 c0,0-4.005,1.347-4.551,0.692c-0.546-0.655,0.728-1.711,0.728-1.711s-1.784,0.619-1.711,1.638c0.073,1.019,0.947,2.003,2.039,1.748 S18.634,28.583,19.507,28.984z"/><linearGradient id="BAtC0rrywczVnn1U-xgVCg" x1="21.91" x2="25.406" y1="23.872" y2="23.872" gradientUnits="userSpaceOnUse"><stop offset=".096" stop-color="#5e6d7b"/><stop offset=".505" stop-color="#5c6b79"/><stop offset="1" stop-color="#515c69"/></linearGradient><path fill="url(#BAtC0rrywczVnn1U-xgVCg)" d="M23.658,22.94 c-0.947,0.546-1.748,0.182-1.748,0.182s1.293,2.051,2.749,1.942c-0.146-1.019,0.746-2.197,0.746-2.197S24.605,22.393,23.658,22.94z"/><linearGradient id="BAtC0rrywczVnn1U-xgVCh" x1="20.836" x2="26.061" y1="17.194" y2="17.194" gradientUnits="userSpaceOnUse"><stop offset=".096" stop-color="#5e6d7b"/><stop offset=".505" stop-color="#5c6b79"/><stop offset="1" stop-color="#515c69"/></linearGradient><path fill="url(#BAtC0rrywczVnn1U-xgVCh)" d="M21.546,15.039 c0.255,1.019-0.619,2.294-0.619,2.294s1.529,0.91,1.238,2.075c1.201,0.364,2.112,2.476,2.112,2.476s1.129-1.056,1.784-1.311 c-0.364-0.692-1.638-1.784-2.986-1.784c0.473-1.748-0.728-2.148-0.728-2.148s0.473-0.728,0.146-1.311 c0.655-1.056,0.382-3.119-1.657-2.791C21.655,12.703,22.511,13.759,21.546,15.039z"/><linearGradient id="BAtC0rrywczVnn1U-xgVCi" x1="26.68" x2="33.925" y1="16.452" y2="16.452" gradientUnits="userSpaceOnUse"><stop offset=".096" stop-color="#5e6d7b"/><stop offset=".505" stop-color="#5c6b79"/><stop offset="1" stop-color="#515c69"/></linearGradient><path fill="url(#BAtC0rrywczVnn1U-xgVCi)" d="M28.901,14.529 c0,0,0.109,0.546,0.765,0.364s0.291-0.765,0.291-0.765s1.384-0.583,1.784,0.765c0.401,1.347-0.692,1.675-0.692,1.675 s0.364,2.003-1.274,2.33c-1.638,0.328-2.549-0.655-2.549-0.655s0.255,1.129-0.546,2.039c1.274,0.473,2.294-0.473,2.294-0.473 s2.112,0,3.095-1.638c1.748,0.765,1.893-0.765,1.019-2.33c0.837-0.255,0.837-0.401,0.837-0.401s-0.801-0.655-0.364-1.602 c-1.056,0.109-1.384-0.874-1.384-1.347c-1.165,0.728-1.966,0.583-2.075,0.036c-0.765,1.056-2.476,2.003-2.476,2.003l0.546,0.218 L28.901,14.529z"/><linearGradient id="BAtC0rrywczVnn1U-xgVCj" x1="24.604" x2="29.868" y1="17.259" y2="17.259" gradientUnits="userSpaceOnUse"><stop offset=".096" stop-color="#5e6d7b"/><stop offset=".505" stop-color="#5c6b79"/><stop offset="1" stop-color="#515c69"/></linearGradient><path fill="url(#BAtC0rrywczVnn1U-xgVCj)" d="M27.138,18.076l0.099,0.168 c0.121,0.012,2.895,0.262,2.61-0.984c-0.291-1.274-1.129-1.056-1.893-0.874c-0.423,0.55-0.993,0.729-1.506,0.523l0.117,0.199 c-0.447,0.063-0.874,0.035-1.13-0.179c-0.757-0.636-0.972,0.104-0.747,0.538C25.28,18.347,26.375,18.293,27.138,18.076z"/><linearGradient id="BAtC0rrywczVnn1U-xgVCk" x1="18.561" x2="21.619" y1="37.359" y2="37.359" gradientUnits="userSpaceOnUse"><stop offset=".096" stop-color="#5e6d7b"/><stop offset=".505" stop-color="#5c6b79"/><stop offset="1" stop-color="#515c69"/></linearGradient><path fill="url(#BAtC0rrywczVnn1U-xgVCk)" d="M19.726,36.083 c0.692-0.364,1.893,0.364,1.893,0.364s-0.692-1.384-1.82-1.056c-1.129,0.328-1.238,1.42-1.238,1.42s0.219,2.367,1.384,2.549 s1.602-1.129,1.602-1.129c-1.202,0.655-2.367-0.218-2.439-0.837S19.034,36.447,19.726,36.083z"/><linearGradient id="BAtC0rrywczVnn1U-xgVCl" x1="31.486" x2="45.971" y1="26.235" y2="26.235" gradientUnits="userSpaceOnUse"><stop offset=".096" stop-color="#5e6d7b"/><stop offset=".505" stop-color="#5c6b79"/><stop offset="1" stop-color="#515c69"/></linearGradient><path fill="url(#BAtC0rrywczVnn1U-xgVCl)" d="M45.576,32.807 c-0.546-1.202-2.148-2.949-2.986-3.823s-2.585-3.787-2.476-6.372c0.109-2.585,1.893-4.114,3.204-4.041s0.947,3.38,0.947,3.38 s1.311-3.526-0.801-4.035c-2.112-0.51-3.896,2.003-4.369,4.515c-0.473,2.512,1.393,5.791,2.476,7.203 c1.398,1.822,2.655,4.031,2.804,5.249c0.169,1.385-0.218,1.857-0.91,1.675c0,0.437-0.619,1.056-0.837,0.437 c-0.692-1.93-3.277-2.731-3.277-2.731c0.291-2.039-1.638-3.131-1.638-3.131s0.036-0.692-0.218-1.675s-1.384-1.238-0.801-2.403 c-0.51-0.546-0.328-0.801-0.036-1.675c0.291-0.874-0.328-2.148-0.328-2.148l0.965,0.431c0,0-0.273-1.596-0.055-3.38 c0.947-0.655,1.074-2.536,0.728-3.568c0.255-1.59-0.765-2.804-0.765-2.804s1.82,0.036,1.165-1.019 c-1.129,0.291-2.512-0.546-2.512-0.546s0.109-0.401-0.182-1.711c-0.291,0.546-2.148,1.165-2.148,1.165 c0.255,0.837,2.694,2.913,2.694,2.913l-0.874,1.893c0,0,1.238,1.274,0.146,2.694c1.056,1.529-1.019,4.296-1.019,4.296l0.983-0.109 l-1.129,1.893c0,0-0.51-0.91-0.51-1.274s0.182-0.801-0.182-1.857c-0.291,0.983-2.148,2.731-2.148,2.731s0.837-0.583,1.347,0.182 c0.51,0.765,0.546,2.84,0.546,2.84s2.294,1.893,1.638,3.386c1.493,0.983,0.291,3.131,0.291,3.131s1.62,0.03,2.239,1.45 c1.675,0.109,2.439,1.11,3.277,2.53c0-0.91,0.382-0.85,1.038-0.012c0.655,0.837,0.619,1.711,0.219,3.35 c0.874-0.364,1.347-1.857,1.092-3.022c0.473,0.291,2.075,0.073,1.82-0.91c1.748-1.165,0.619-2.876,0.619-2.876 S46.123,34.008,45.576,32.807z"/><linearGradient id="BAtC0rrywczVnn1U-xgVCm" x1="20.709" x2="23.382" y1="35.004" y2="35.004" gradientUnits="userSpaceOnUse"><stop offset=".096" stop-color="#5e6d7b"/><stop offset=".505" stop-color="#5c6b79"/><stop offset="1" stop-color="#515c69"/></linearGradient><path fill="url(#BAtC0rrywczVnn1U-xgVCm)" d="M20.709,34.372 c0,0,2.294-0.401,1.748,2.039c1.456-1.384,0.874-2.039,0.401-2.549C22.384,33.353,21,33.608,20.709,34.372z"/><linearGradient id="BAtC0rrywczVnn1U-xgVCn" x1="42.008" x2="46.625" y1="22.082" y2="22.082" gradientUnits="userSpaceOnUse"><stop offset=".096" stop-color="#5e6d7b"/><stop offset=".505" stop-color="#5c6b79"/><stop offset="1" stop-color="#515c69"/></linearGradient><path fill="url(#BAtC0rrywczVnn1U-xgVCn)" d="M45.758,16.677 c-0.692-0.837-2.549-1.244-3.75-0.589c0,0,1.885-0.137,2.84,0.765c1.293,1.22,1.092,4.12-0.328,6.123 c0.728,1.311,0.546,1.966,0.546,1.966l-0.473-0.255c0,0,0.255,1.238,0,2.003s-0.364,1.711-0.364,1.711l1.201-1.566l0.655,0.255 c0,0,0.328-3.058-0.619-4.078C46.123,21.629,47.542,18.571,45.758,16.677z"/><linearGradient id="BAtC0rrywczVnn1U-xgVCo" x1="35.527" x2="39.515" y1="40.586" y2="40.586" gradientUnits="userSpaceOnUse"><stop offset=".096" stop-color="#5e6d7b"/><stop offset=".505" stop-color="#5c6b79"/><stop offset="1" stop-color="#515c69"/></linearGradient><path fill="url(#BAtC0rrywczVnn1U-xgVCo)" d="M39.132,42.018 c0,0,0.218-2.84-1.456-3.568c0.036-1.82-1.675-3.058-1.675-3.058c-0.073,0.874,0.218,1.42,0.401,2.221 c0.182,0.801-0.874,1.201-0.874,1.201l1.019,0.473c0,0-0.583,1.347,0.328,1.893s0.983,2.039-0.401,2.221 c0.51,0.91-1.056,2.075-0.255,2.33c1.966,0.291,2.731-0.801,1.602-1.638C40.588,42.783,39.132,42.018,39.132,42.018z"/><linearGradient id="BAtC0rrywczVnn1U-xgVCp" x1="28.253" x2="36.547" y1="46.749" y2="46.749" gradientUnits="userSpaceOnUse"><stop offset=".096" stop-color="#5e6d7b"/><stop offset=".505" stop-color="#5c6b79"/><stop offset="1" stop-color="#515c69"/></linearGradient><path fill="url(#BAtC0rrywczVnn1U-xgVCp)" d="M34.544,46.169 c-0.546,1.493-2.367,2.512-1.966,1.129c-1.274,0.51-1.93,0.182-1.638-1.456c-2.804,0.437-2.112-1.456-2.112-1.456 c-1.056,1.456-0.546,1.857,0.619,2.403c-0.655,1.274,0.983,1.93,2.112,1.456c0.583,1.456,2.221,0.947,2.585-0.51 c0.328,0.54,1.529,0.977,2.403-1.675C35.345,47.88,34.581,47.589,34.544,46.169z"/><linearGradient id="BAtC0rrywczVnn1U-xgVCq" x1="23.549" x2="31.45" y1="37.478" y2="37.478" gradientUnits="userSpaceOnUse"><stop offset=".096" stop-color="#5e6d7b"/><stop offset=".505" stop-color="#5c6b79"/><stop offset="1" stop-color="#515c69"/></linearGradient><path fill="url(#BAtC0rrywczVnn1U-xgVCq)" d="M31.45,40.598 c-1.42-2.512-0.146-4.551-0.146-4.551s-0.692-1.638-0.401-2.658s-0.51-1.201-0.51-1.201s-2.658-0.401-3.058,1.056 c-0.401,1.456,1.42,2.257,0.146,3.932c-1.274,1.675-1.347,2.658-1.347,2.658s0.218-0.655,1.493-0.765 c1.274-0.109-0.109,1.129-0.255,1.82c-0.005,0.024-0.004,0.053-0.008,0.079c-0.892-0.176-2.184-0.549-2.687-1.28l-1.129,1.274 c1.31,0.268,2.578,0.363,3.798,0.259c0.009,0.695,0.353,1.598,0.353,1.598s0.51-0.947,1.311-1.347 C29.811,41.071,30.649,41.29,31.45,40.598z"/></svg>